<?xml version="1.0" standalone="no"?>
<!DOCTYPE svg PUBLIC "-//W3C//DTD SVG 20010904//EN"
 "http://www.w3.org/TR/2001/REC-SVG-20010904/DTD/svg10.dtd">
<svg version="1.0" xmlns="http://www.w3.org/2000/svg"
 width="550.000000pt" height="550.000000pt" viewBox="0 0 550.000000 550.000000"
 preserveAspectRatio="xMidYMid meet">
<metadata>
Created by potrace 1.11, written by Peter Selinger 2001-2013
</metadata>
<g transform="translate(0.000000,550.000000) scale(0.100000,-0.100000)"
fill="#000000" stroke="none">
<path d="M3155 4620 c-3 -5 -17 -10 -30 -10 -13 0 -27 -5 -30 -10 -4 -6 -10
-8 -15 -5 -5 3 -17 1 -27 -4 -21 -11 -53 -23 -68 -26 -5 0 -23 -7 -40 -15 -16
-7 -35 -12 -42 -11 -6 1 -14 -3 -18 -9 -3 -5 -17 -10 -30 -10 -13 0 -26 -4
-29 -9 -3 -4 -16 -6 -30 -4 -13 3 -27 0 -30 -6 -4 -6 -18 -11 -31 -11 -13 0
-26 -4 -29 -9 -3 -4 -16 -6 -30 -4 -13 3 -27 0 -30 -6 -4 -6 -18 -11 -31 -11
-13 0 -26 -4 -30 -10 -3 -5 -13 -6 -21 -3 -8 3 -25 1 -37 -5 -12 -6 -31 -12
-42 -14 -18 -3 -20 -11 -20 -68 l0 -65 185 -2 185 -2 3 -322 c1 -208 -1 -326
-8 -333 -13 -13 -13 -263 0 -271 6 -3 10 -28 10 -55 0 -27 4 -51 9 -54 5 -3 7
-15 4 -25 -3 -10 0 -22 6 -25 6 -4 11 -20 11 -36 0 -16 5 -32 10 -35 6 -4 8
-11 5 -16 -4 -5 3 -23 15 -39 12 -17 18 -30 15 -30 -3 0 3 -13 14 -29 11 -15
18 -31 15 -34 -3 -3 47 -57 110 -120 68 -67 116 -123 116 -134 0 -11 2 -22 5
-25 7 -7 7 -1437 0 -1449 -4 -5 -144 -9 -336 -9 -319 0 -329 -1 -329 -19 0
-11 -5 -23 -10 -26 -6 -4 -10 -12 -9 -18 2 -13 -7 -42 -22 -70 -5 -10 -7 -22
-4 -27 4 -6 359 -10 951 -10 1015 0 970 -2 948 48 -4 9 -6 22 -5 29 1 6 -3 14
-9 18 -5 3 -10 16 -10 29 0 45 -9 46 -295 46 -157 0 -275 4 -281 9 -5 6 -8 48
-6 95 l3 86 182 2 182 3 3 110 c1 61 -1 193 -6 295 -5 102 -7 187 -5 189 8 11
29 -34 25 -54 -2 -13 1 -26 7 -29 6 -4 11 -18 11 -31 0 -13 4 -26 8 -29 5 -3
7 -18 4 -34 -2 -16 1 -33 7 -36 6 -4 11 -20 11 -36 0 -16 5 -32 10 -35 6 -4 8
-10 5 -15 -3 -5 2 -22 12 -37 10 -14 18 -31 18 -37 2 -22 27 -72 47 -93 12
-13 17 -23 12 -23 -4 0 25 -34 66 -75 41 -41 78 -75 83 -75 5 0 26 -13 46 -28
37 -30 128 -77 147 -77 6 0 22 -8 37 -18 15 -10 27 -15 27 -12 0 4 13 -3 29
-15 16 -11 33 -20 38 -19 8 2 18 -1 61 -18 9 -4 22 -8 27 -8 10 -2 26 -8 63
-22 9 -4 22 -8 27 -8 6 -1 17 -4 25 -8 17 -6 69 -20 85 -22 13 -2 44 -14 72
-27 12 -6 31 -8 42 -5 12 3 24 1 27 -4 3 -5 15 -9 28 -9 12 0 27 -5 33 -11 6
-6 23 -9 39 -7 30 3 41 25 29 56 -4 9 -8 35 -10 57 -6 93 -50 194 -122 283
-19 23 -31 42 -27 42 4 0 0 8 -8 18 -19 22 -29 60 -17 68 5 3 9 20 9 39 0 19
5 37 10 40 6 3 10 37 10 75 0 38 -4 72 -10 75 -5 3 -10 16 -10 29 0 12 -3 26
-7 30 -4 4 -8 13 -8 19 -1 14 -14 65 -22 87 -4 8 -7 20 -7 25 -1 6 -8 21 -16
35 -8 14 -15 30 -15 35 -1 6 -5 19 -9 30 -9 22 -18 47 -21 55 -9 26 -18 50
-30 75 -16 37 -27 70 -23 70 2 0 -7 15 -20 33 -13 17 -20 32 -17 32 3 0 -3 13
-15 30 -12 17 -18 30 -15 30 3 0 -3 14 -15 30 -12 17 -18 30 -15 30 3 0 -3 14
-15 30 -12 17 -18 30 -15 30 3 0 -3 14 -15 30 -12 17 -19 30 -15 30 3 0 -5 15
-19 33 -15 19 -26 39 -26 45 0 6 -12 24 -26 41 -14 17 -23 31 -19 31 3 0 -5
15 -19 33 -15 19 -26 37 -26 42 0 4 -17 29 -37 54 -21 25 -38 48 -38 52 0 4
-16 26 -35 50 -19 24 -37 49 -40 55 -3 7 -38 49 -77 93 -40 44 -73 83 -73 88
0 22 -392 386 -434 403 -6 3 -30 20 -53 39 -23 18 -43 31 -45 30 -3 -2 -20 8
-39 22 -19 14 -70 43 -114 64 -66 33 -99 58 -188 147 -60 59 -106 112 -102
117 3 5 1 12 -5 16 -5 3 -10 16 -10 29 0 12 -3 25 -6 28 -3 4 -6 52 -6 108 0
75 4 107 16 125 18 27 22 100 6 110 -5 3 -10 14 -10 25 0 10 -25 41 -56 69
-56 51 -56 51 -124 51 -38 0 -72 -4 -75 -10z m127 -125 c17 -17 24 -33 21 -49
-3 -13 0 -27 6 -30 14 -9 14 -53 1 -61 -12 -8 -13 -248 -1 -273 5 -9 18 -38
30 -64 12 -26 44 -71 70 -100 27 -29 49 -56 50 -60 0 -5 4 -9 9 -9 4 -1 27
-18 52 -38 25 -21 53 -41 63 -44 23 -8 22 -27 -1 -27 -10 0 -22 -3 -25 -7 -4
-3 -36 -5 -71 -4 -37 1 -67 -2 -71 -8 -3 -6 -21 -11 -40 -11 -19 0 -37 -5 -40
-10 -4 -6 -10 -8 -15 -5 -30 19 -153 -105 -135 -136 3 -4 1 -10 -5 -14 -5 -3
-10 -17 -10 -30 0 -13 -4 -27 -10 -30 -5 -3 -10 -19 -10 -35 0 -16 5 -32 10
-35 6 -3 10 -25 10 -49 0 -23 3 -46 7 -50 4 -4 8 -13 8 -19 1 -26 30 -104 47
-129 11 -16 16 -28 13 -28 -3 0 4 -15 17 -32 13 -18 22 -34 20 -36 -4 -4 59
-110 73 -122 8 -7 13 -16 10 -20 -2 -4 11 -25 30 -47 19 -22 32 -42 30 -45 -3
-3 19 -31 48 -64 30 -32 56 -64 58 -71 2 -6 55 -67 117 -135 298 -326 347
-381 345 -387 -1 -3 5 -13 13 -22 12 -14 15 -65 15 -295 l0 -279 -138 0 -138
0 -3 235 c-1 129 -5 242 -9 250 -3 8 -5 24 -4 34 2 10 -2 28 -7 40 -14 29 -25
59 -26 71 -2 23 -72 153 -113 212 -13 17 -23 35 -23 39 0 4 -17 28 -37 53 -21
25 -37 48 -36 52 1 3 -41 48 -94 100 -256 251 -359 364 -388 424 -16 33 -28
67 -26 77 1 9 -3 19 -9 23 -5 3 -10 21 -10 39 0 18 -3 36 -7 39 -4 4 -6 32 -4
61 1 30 -2 57 -8 61 -8 4 -11 154 -11 477 l0 471 -35 33 c-19 18 -35 36 -35
40 0 4 3 4 6 1 4 -4 19 2 33 12 14 10 31 20 36 21 16 4 34 9 53 17 9 3 22 7
27 8 6 0 17 4 25 7 43 17 56 21 67 19 6 -1 14 3 18 9 3 5 35 10 69 10 54 0 67
-4 88 -25z m493 -856 c4 -5 12 -8 18 -6 15 5 95 -50 174 -119 34 -30 65 -54
69 -53 9 2 334 -323 334 -334 0 -5 30 -41 66 -82 37 -40 66 -76 65 -79 -2 -4
14 -27 34 -52 20 -24 33 -44 29 -44 -3 0 10 -20 30 -45 21 -25 35 -45 31 -45
-3 0 5 -15 19 -33 15 -19 26 -37 26 -41 0 -4 12 -23 26 -42 15 -19 23 -34 20
-34 -4 0 2 -13 14 -30 12 -16 18 -30 14 -30 -4 0 0 -8 9 -18 21 -23 176 -330
170 -336 -3 -3 5 -19 17 -35 12 -17 19 -31 15 -31 -3 0 2 -12 12 -27 10 -15
18 -31 18 -37 1 -6 7 -24 15 -41 7 -16 14 -34 15 -40 0 -5 4 -18 8 -27 17 -44
20 -54 18 -65 -1 -6 3 -14 9 -18 5 -3 10 -21 10 -39 0 -18 3 -36 7 -40 11 -11
12 -35 2 -42 -5 -3 -9 -29 -9 -58 0 -61 -19 -88 -45 -66 -8 7 -15 9 -15 5 0
-3 -19 10 -42 29 -23 20 -44 34 -46 31 -3 -2 -18 5 -33 16 -16 11 -29 17 -29
14 0 -3 -14 3 -31 15 -16 12 -32 20 -35 18 -6 -7 -283 132 -326 163 -18 13
-35 23 -38 22 -3 -1 -34 24 -70 55 -35 31 -68 56 -72 55 -9 -3 -478 466 -478
479 0 5 -42 55 -92 110 -51 55 -95 105 -98 112 -3 7 -25 35 -48 63 -24 28 -44
55 -44 60 0 4 -15 27 -35 51 -19 23 -31 42 -27 42 3 0 -10 20 -30 45 -21 25
-34 45 -30 45 3 0 -4 15 -18 33 -13 17 -34 52 -46 77 -13 25 -26 52 -31 60
-38 70 -44 93 -43 171 1 45 6 87 12 94 5 6 7 14 4 17 -7 7 63 73 79 73 6 1 19
4 27 7 44 18 57 21 77 19 12 -1 30 2 40 8 24 14 270 14 278 0z m-409 -1093
c51 -56 119 -147 117 -156 -1 -3 5 -12 12 -20 19 -21 114 -208 108 -214 -3 -2
3 -15 12 -29 13 -21 16 -62 16 -283 l0 -259 -167 -3 c-92 -1 -171 1 -176 6
-10 10 -11 951 -2 988 9 36 26 29 80 -30z m918 -611 c18 -14 37 -25 41 -25 4
0 23 -11 42 -26 18 -14 33 -22 33 -19 0 4 15 -4 32 -17 18 -13 67 -40 108 -62
41 -21 87 -47 103 -58 15 -11 27 -16 27 -13 0 3 14 -3 30 -15 17 -12 30 -18
30 -15 0 3 14 -3 30 -15 17 -12 30 -18 30 -14 0 4 10 -2 23 -13 12 -11 36 -28
52 -36 65 -34 299 -267 300 -300 1 -7 7 -25 15 -42 24 -55 19 -75 -17 -56 -22
12 -54 24 -68 26 -13 2 -42 13 -80 30 -39 18 -68 28 -80 30 -10 2 -26 8 -62
22 -10 4 -22 8 -28 8 -5 1 -23 8 -40 15 -16 8 -34 14 -40 15 -5 0 -21 7 -35
15 -14 8 -28 14 -32 15 -3 0 -10 3 -14 8 -4 4 -14 7 -21 7 -8 0 -30 12 -49 26
-19 15 -34 23 -34 20 0 -4 -20 9 -44 29 -25 20 -48 36 -52 34 -9 -2 -114 102
-114 113 0 5 -11 24 -25 42 -14 18 -22 35 -19 38 3 3 -4 21 -15 41 -11 19 -17
37 -15 40 3 3 1 13 -5 24 -14 27 -24 57 -22 67 1 4 -2 13 -7 20 -12 14 -24 66
-17 66 4 0 21 -11 39 -25z m-623 -565 l0 -115 -191 0 -191 0 0 113 c0 61 0
114 1 117 0 3 86 4 191 3 l190 -3 0 -115z"/>
<path d="M3065 4450 c-3 -6 -11 -8 -16 -4 -17 10 -49 -27 -49 -55 0 -15 7 -37
16 -49 33 -48 124 -12 124 49 0 29 -25 68 -36 57 -4 -4 -13 -3 -20 3 -8 7 -14
7 -19 -1z"/>
<path d="M295 3180 c-3 -5 -3 -16 2 -22 4 -7 8 -17 8 -23 0 -19 63 -141 79
-154 9 -7 13 -17 10 -22 -6 -11 249 -269 266 -269 6 0 27 -12 45 -26 19 -14
35 -25 37 -24 6 3 76 -24 131 -52 10 -5 22 -6 27 -3 5 3 11 1 15 -5 3 -5 19
-10 35 -10 16 0 32 -5 36 -11 3 -6 20 -9 36 -7 16 3 31 1 34 -4 3 -4 41 -8 84
-8 44 0 91 -5 105 -12 21 -9 31 -9 46 0 10 7 54 12 98 12 44 0 82 4 85 8 3 5
19 7 36 4 18 -2 41 0 53 6 37 17 62 25 71 23 6 -1 19 2 30 7 25 12 49 20 56
18 3 0 20 9 38 22 17 13 32 20 32 16 0 -3 15 5 34 20 19 14 38 26 41 26 4 0
24 14 45 30 21 17 42 30 47 30 5 0 62 50 126 111 l117 111 25 -31 c15 -16 25
-32 23 -35 -5 -8 135 -146 148 -146 6 0 41 31 77 69 57 58 67 74 67 104 0 31
-10 44 -91 121 -51 47 -96 86 -101 86 -5 0 -24 11 -42 25 l-33 25 -986 0
c-646 0 -988 -3 -992 -10z m2022 -110 c21 -11 64 -46 97 -79 l58 -59 -17 -26
c-22 -34 -48 -48 -72 -40 -23 9 -83 65 -83 78 -1 6 -14 27 -30 46 -35 40 -35
43 -14 75 20 30 15 30 61 5z m-217 5 c0 -2 -10 -24 -22 -47 -21 -41 -162 -188
-181 -188 -4 0 -24 -12 -43 -26 -19 -15 -34 -23 -34 -19 0 3 -12 -3 -26 -14
-26 -21 -131 -74 -149 -76 -14 -2 -46 -14 -78 -31 -16 -7 -39 -14 -52 -14 -13
0 -26 -4 -29 -8 -3 -5 -18 -7 -34 -4 -16 2 -33 -1 -36 -7 -9 -15 -202 -15
-211 0 -4 6 -24 9 -46 8 -21 -2 -41 0 -45 4 -4 4 -22 7 -40 7 -18 0 -36 5 -39
11 -4 6 -13 8 -21 5 -7 -3 -16 -1 -19 4 -4 6 -17 10 -30 10 -13 0 -27 5 -30
10 -4 6 -12 10 -18 9 -7 -1 -20 1 -29 4 -30 12 -48 17 -51 14 -1 -1 -17 8 -34
21 -18 13 -33 20 -33 17 0 -3 -13 3 -29 14 -15 11 -31 18 -33 15 -9 -9 -208
188 -214 211 -3 13 -14 31 -25 41 -10 9 -16 21 -13 25 5 9 1644 13 1644 4z"/>
</g>
</svg>
